<?xml version="1.0" encoding="UTF-8"?><svg xmlns="http://www.w3.org/2000/svg" xmlns:xlink="http://www.w3.org/1999/xlink" contentScriptType="text/ecmascript" width="375pt" zoomAndPan="magnify" contentStyleType="text/css" viewBox="0 0 375 374.999991" height="374.999991pt" preserveAspectRatio="xMidYMid meet" version="1.2"><defs><g/><filter x="0%" y="0%" width="100%" xmlns:xlink="http://www.w3.org/1999/xlink" xlink:type="simple" filterUnits="objectBoundingBox" xlink:actuate="onLoad" id="alpha" height="100%" xlink:show="other" xml:id="alpha"><feColorMatrix values="0 0 0 0 1 0 0 0 0 1 0 0 0 0 1 0 0 0 1 0" type="matrix" in="SourceGraphic"/></filter><clipPath xml:id="clip1" id="clip1"><rect x="0" width="144" y="0" height="110"/></clipPath></defs><g xml:id="surface1" id="surface1"><g style="fill:rgb(100%,100%,100%);fill-opacity:1;"><g transform="translate(9.621098, 219.415298)"><path style="stroke:none;" d="M 21.453125 -59.078125 C 17.359375 -57.523438 14.1875 -55.117188 11.9375 -51.859375 C 9.6875 -48.597656 8.5625 -44.601562 8.5625 -39.875 C 8.5625 -37.738281 8.765625 -36.253906 9.171875 -35.421875 C 9.578125 -34.585938 9.78125 -34.113281 9.78125 -34 C 6.664062 -34 4.34375 -34.644531 2.8125 -35.9375 C 1.28125 -37.238281 0.515625 -39.390625 0.515625 -42.390625 C 0.515625 -46.078125 2.023438 -49.664062 5.046875 -53.15625 C 8.078125 -56.644531 11.957031 -59.46875 16.6875 -61.625 C 21.414062 -63.789062 26.144531 -64.875 30.875 -64.875 C 31.6875 -64.875 32.84375 -64.816406 34.34375 -64.703125 L 35.125 -11.5 L 53.28125 -64.4375 L 64.265625 -64.4375 L 65.046875 -11.5 L 83.21875 -64.4375 L 89.265625 -64.4375 L 65.21875 0 L 52.765625 0 L 51.734375 -44.03125 L 35.296875 0 L 22.84375 0 Z M 21.453125 -59.078125 "/></g></g><g style="fill:rgb(100%,100%,100%);fill-opacity:1;"><g transform="translate(92.830294, 219.415298)"><path style="stroke:none;" d="M 31.21875 0.515625 C 27.707031 0.515625 25.128906 -0.421875 23.484375 -2.296875 C 21.835938 -4.171875 21.015625 -6.488281 21.015625 -9.25 C 21.015625 -10.46875 21.160156 -11.835938 21.453125 -13.359375 C 21.742188 -14.890625 22.046875 -16.375 22.359375 -17.8125 C 22.679688 -19.257812 22.898438 -20.1875 23.015625 -20.59375 C 23.472656 -22.601562 23.898438 -24.585938 24.296875 -26.546875 C 24.703125 -28.515625 24.90625 -30.101562 24.90625 -31.3125 C 24.90625 -34.25 23.867188 -35.71875 21.796875 -35.71875 C 20.296875 -35.71875 18.96875 -34.984375 17.8125 -33.515625 C 16.664062 -32.046875 15.742188 -30.128906 15.046875 -27.765625 L 9.171875 0 L -3.28125 0 L 9.25 -58.8125 L 22.0625 -60.546875 L 17.390625 -38.75 C 20.273438 -41.976562 23.644531 -43.59375 27.5 -43.59375 C 30.445312 -43.59375 32.785156 -42.785156 34.515625 -41.171875 C 36.242188 -39.554688 37.109375 -37.109375 37.109375 -33.828125 C 37.109375 -32.148438 36.90625 -30.285156 36.5 -28.234375 C 36.09375 -26.191406 35.515625 -23.703125 34.765625 -20.765625 C 34.304688 -18.972656 33.890625 -17.222656 33.515625 -15.515625 C 33.140625 -13.816406 32.953125 -12.476562 32.953125 -11.5 C 32.953125 -10.351562 33.210938 -9.460938 33.734375 -8.828125 C 34.253906 -8.191406 35.148438 -7.875 36.421875 -7.875 C 38.148438 -7.875 39.53125 -8.492188 40.5625 -9.734375 C 41.601562 -10.972656 42.644531 -12.890625 43.6875 -15.484375 L 47.3125 -15.484375 C 45.175781 -9.140625 42.707031 -4.882812 39.90625 -2.71875 C 37.113281 -0.5625 34.21875 0.515625 31.21875 0.515625 Z M 31.21875 0.515625 "/></g></g><g style="fill:rgb(100%,100%,100%);fill-opacity:1;"><g transform="translate(136.510799, 219.415298)"><path style="stroke:none;" d="M 10.375 0.515625 C 7.09375 0.515625 4.351562 -0.609375 2.15625 -2.859375 C -0.03125 -5.109375 -1.125 -8.625 -1.125 -13.40625 C -1.125 -17.675781 -0.273438 -22.160156 1.421875 -26.859375 C 3.128906 -31.554688 5.664062 -35.535156 9.03125 -38.796875 C 12.40625 -42.054688 16.429688 -43.6875 21.109375 -43.6875 C 23.472656 -43.6875 25.226562 -43.28125 26.375 -42.46875 C 27.53125 -41.664062 28.109375 -40.597656 28.109375 -39.265625 L 28.109375 -38.671875 L 29.0625 -43.25 L 41.515625 -43.25 L 35.296875 -13.84375 C 35.066406 -12.976562 34.953125 -12.054688 34.953125 -11.078125 C 34.953125 -8.597656 36.132812 -7.359375 38.5 -7.359375 C 40.113281 -7.359375 41.507812 -8.101562 42.6875 -9.59375 C 43.875 -11.09375 44.8125 -13.054688 45.5 -15.484375 L 49.125 -15.484375 C 47 -9.253906 44.363281 -5.03125 41.21875 -2.8125 C 38.070312 -0.59375 34.914062 0.515625 31.75 0.515625 C 29.320312 0.515625 27.375 -0.160156 25.90625 -1.515625 C 24.4375 -2.867188 23.554688 -4.84375 23.265625 -7.4375 C 21.597656 -5.070312 19.738281 -3.15625 17.6875 -1.6875 C 15.644531 -0.21875 13.207031 0.515625 10.375 0.515625 Z M 16 -7.875 C 17.445312 -7.875 18.875 -8.550781 20.28125 -9.90625 C 21.695312 -11.257812 22.664062 -13.117188 23.1875 -15.484375 L 27.328125 -35.03125 C 27.328125 -35.78125 27.039062 -36.515625 26.46875 -37.234375 C 25.894531 -37.953125 25 -38.3125 23.78125 -38.3125 C 21.476562 -38.3125 19.40625 -36.972656 17.5625 -34.296875 C 15.71875 -31.617188 14.273438 -28.390625 13.234375 -24.609375 C 12.191406 -20.828125 11.671875 -17.5 11.671875 -14.625 C 11.671875 -11.738281 12.085938 -9.890625 12.921875 -9.078125 C 13.765625 -8.273438 14.789062 -7.875 16 -7.875 Z M 16 -7.875 "/></g></g><g style="fill:rgb(100%,100%,100%);fill-opacity:1;"><g transform="translate(182.007721, 219.415298)"><path style="stroke:none;" d="M 8.5625 0.515625 C 5.789062 0.515625 3.554688 -0.347656 1.859375 -2.078125 C 0.160156 -3.804688 -0.6875 -6.398438 -0.6875 -9.859375 C -0.6875 -11.304688 -0.457031 -13.179688 0 -15.484375 L 5.1875 -39.796875 L 2.328125 -39.796875 L 3.03125 -43.25 L 5.875 -43.25 L 8.484375 -55.1875 L 21.28125 -56.921875 L 18.34375 -43.25 L 23.53125 -43.25 L 22.84375 -39.796875 L 17.640625 -39.796875 L 12.109375 -13.84375 C 11.878906 -12.976562 11.765625 -12.054688 11.765625 -11.078125 C 11.765625 -9.921875 12.035156 -9.097656 12.578125 -8.609375 C 13.128906 -8.117188 14.039062 -7.875 15.3125 -7.875 C 16.976562 -7.875 18.53125 -8.578125 19.96875 -9.984375 C 21.414062 -11.398438 22.457031 -13.234375 23.09375 -15.484375 L 26.734375 -15.484375 C 24.597656 -9.253906 21.859375 -5.03125 18.515625 -2.8125 C 15.171875 -0.59375 11.851562 0.515625 8.5625 0.515625 Z M 8.5625 0.515625 "/></g></g><g mask="url(#mask0)" transform="matrix(1,0,0,1,217,132)"><g xml:id="surface5" id="surface5" clip-path="url(#clip1)"><g style="fill:rgb(100%,100%,100%);fill-opacity:1;"><g transform="translate(2.635967, 87.415298)"><path style="stroke:none;" d="M 12.375 0.515625 C 8.101562 0.515625 4.785156 -0.59375 2.421875 -2.8125 C 0.0546875 -5.03125 -1.125 -8.503906 -1.125 -13.234375 C -1.125 -17.210938 -0.347656 -21.59375 1.203125 -26.375 C 2.765625 -31.164062 5.300781 -35.304688 8.8125 -38.796875 C 12.332031 -42.285156 16.804688 -44.03125 22.234375 -44.03125 C 28.578125 -44.03125 31.75 -41.257812 31.75 -35.71875 C 31.75 -32.488281 30.820312 -29.519531 28.96875 -26.8125 C 27.125 -24.101562 24.675781 -21.925781 21.625 -20.28125 C 18.570312 -18.632812 15.3125 -17.695312 11.84375 -17.46875 C 11.726562 -15.738281 11.671875 -14.585938 11.671875 -14.015625 C 11.671875 -11.191406 12.160156 -9.273438 13.140625 -8.265625 C 14.128906 -7.253906 15.71875 -6.75 17.90625 -6.75 C 21.019531 -6.75 23.6875 -7.46875 25.90625 -8.90625 C 28.125 -10.351562 30.5625 -12.546875 33.21875 -15.484375 L 36.15625 -15.484375 C 29.757812 -4.816406 21.832031 0.515625 12.375 0.515625 Z M 12.546875 -21.625 C 14.679688 -21.738281 16.710938 -22.488281 18.640625 -23.875 C 20.566406 -25.257812 22.117188 -27.015625 23.296875 -29.140625 C 24.484375 -31.273438 25.078125 -33.523438 25.078125 -35.890625 C 25.078125 -38.253906 24.359375 -39.4375 22.921875 -39.4375 C 20.847656 -39.4375 18.816406 -37.617188 16.828125 -33.984375 C 14.835938 -30.359375 13.410156 -26.238281 12.546875 -21.625 Z M 12.546875 -21.625 "/></g></g><g style="fill:rgb(100%,100%,100%);fill-opacity:1;"><g transform="translate(35.850449, 87.415298)"><path style="stroke:none;" d="M 10.375 0.515625 C 7.09375 0.515625 4.351562 -0.609375 2.15625 -2.859375 C -0.03125 -5.109375 -1.125 -8.625 -1.125 -13.40625 C -1.125 -17.675781 -0.273438 -22.160156 1.421875 -26.859375 C 3.128906 -31.554688 5.664062 -35.535156 9.03125 -38.796875 C 12.40625 -42.054688 16.429688 -43.6875 21.109375 -43.6875 C 23.472656 -43.6875 25.226562 -43.28125 26.375 -42.46875 C 27.53125 -41.664062 28.109375 -40.597656 28.109375 -39.265625 L 28.109375 -38.671875 L 29.0625 -43.25 L 41.515625 -43.25 L 35.296875 -13.84375 C 35.066406 -12.976562 34.953125 -12.054688 34.953125 -11.078125 C 34.953125 -8.597656 36.132812 -7.359375 38.5 -7.359375 C 40.113281 -7.359375 41.507812 -8.101562 42.6875 -9.59375 C 43.875 -11.09375 44.8125 -13.054688 45.5 -15.484375 L 49.125 -15.484375 C 47 -9.253906 44.363281 -5.03125 41.21875 -2.8125 C 38.070312 -0.59375 34.914062 0.515625 31.75 0.515625 C 29.320312 0.515625 27.375 -0.160156 25.90625 -1.515625 C 24.4375 -2.867188 23.554688 -4.84375 23.265625 -7.4375 C 21.597656 -5.070312 19.738281 -3.15625 17.6875 -1.6875 C 15.644531 -0.21875 13.207031 0.515625 10.375 0.515625 Z M 16 -7.875 C 17.445312 -7.875 18.875 -8.550781 20.28125 -9.90625 C 21.695312 -11.257812 22.664062 -13.117188 23.1875 -15.484375 L 27.328125 -35.03125 C 27.328125 -35.78125 27.039062 -36.515625 26.46875 -37.234375 C 25.894531 -37.953125 25 -38.3125 23.78125 -38.3125 C 21.476562 -38.3125 19.40625 -36.972656 17.5625 -34.296875 C 15.71875 -31.617188 14.273438 -28.390625 13.234375 -24.609375 C 12.191406 -20.828125 11.671875 -17.5 11.671875 -14.625 C 11.671875 -11.738281 12.085938 -9.890625 12.921875 -9.078125 C 13.765625 -8.273438 14.789062 -7.875 16 -7.875 Z M 16 -7.875 "/></g></g><g style="fill:rgb(100%,100%,100%);fill-opacity:1;"><g transform="translate(81.347372, 87.415298)"><path style="stroke:none;" d="M 8.5625 0.515625 C 5.789062 0.515625 3.554688 -0.347656 1.859375 -2.078125 C 0.160156 -3.804688 -0.6875 -6.398438 -0.6875 -9.859375 C -0.6875 -11.304688 -0.457031 -13.179688 0 -15.484375 L 5.1875 -39.796875 L 2.328125 -39.796875 L 3.03125 -43.25 L 5.875 -43.25 L 8.484375 -55.1875 L 21.28125 -56.921875 L 18.34375 -43.25 L 23.53125 -43.25 L 22.84375 -39.796875 L 17.640625 -39.796875 L 12.109375 -13.84375 C 11.878906 -12.976562 11.765625 -12.054688 11.765625 -11.078125 C 11.765625 -9.921875 12.035156 -9.097656 12.578125 -8.609375 C 13.128906 -8.117188 14.039062 -7.875 15.3125 -7.875 C 16.976562 -7.875 18.53125 -8.578125 19.96875 -9.984375 C 21.414062 -11.398438 22.457031 -13.234375 23.09375 -15.484375 L 26.734375 -15.484375 C 24.597656 -9.253906 21.859375 -5.03125 18.515625 -2.8125 C 15.171875 -0.59375 11.851562 0.515625 8.5625 0.515625 Z M 8.5625 0.515625 "/></g></g><g style="fill:rgb(100%,100%,100%);fill-opacity:1;"><g transform="translate(104.441822, 87.415298)"><path style="stroke:none;" d="M 9.078125 -20.0625 C 9.078125 -22.832031 9.492188 -25.328125 10.328125 -27.546875 C 11.171875 -29.765625 12.179688 -31.679688 13.359375 -33.296875 C 14.546875 -34.910156 16.085938 -36.785156 17.984375 -38.921875 C 20.472656 -41.691406 22.335938 -44.128906 23.578125 -46.234375 C 24.816406 -48.335938 25.4375 -50.800781 25.4375 -53.625 C 25.4375 -56.101562 24.941406 -58.035156 23.953125 -59.421875 C 22.972656 -60.804688 21.5625 -61.5 19.71875 -61.5 C 17.820312 -61.5 16.222656 -60.820312 14.921875 -59.46875 C 13.617188 -58.113281 12.96875 -56.425781 12.96875 -54.40625 C 12.96875 -52.90625 13.34375 -51.535156 14.09375 -50.296875 C 14.84375 -49.054688 15.851562 -48.148438 17.125 -47.578125 L 17.125 -47.234375 C 16.082031 -46.304688 15 -45.582031 13.875 -45.0625 C 12.757812 -44.539062 11.679688 -44.28125 10.640625 -44.28125 C 8.796875 -44.28125 7.28125 -44.957031 6.09375 -46.3125 C 4.914062 -47.675781 4.328125 -49.421875 4.328125 -51.546875 C 4.328125 -54.265625 5.117188 -56.71875 6.703125 -58.90625 C 8.285156 -61.09375 10.429688 -62.820312 13.140625 -64.09375 C 15.859375 -65.363281 18.890625 -66 22.234375 -66 C 26.898438 -66 30.585938 -64.929688 33.296875 -62.796875 C 36.015625 -60.660156 37.375 -57.75 37.375 -54.0625 C 37.375 -51.8125 36.878906 -49.75 35.890625 -47.875 C 34.910156 -46 33.6875 -44.335938 32.21875 -42.890625 C 30.75 -41.453125 28.800781 -39.753906 26.375 -37.796875 C 23.78125 -35.609375 21.734375 -33.765625 20.234375 -32.265625 C 18.734375 -30.765625 17.453125 -28.988281 16.390625 -26.9375 C 15.328125 -24.894531 14.796875 -22.601562 14.796875 -20.0625 Z M 10.90625 0 C 9.050781 0 7.429688 -0.675781 6.046875 -2.03125 C 4.671875 -3.382812 3.984375 -5.015625 3.984375 -6.921875 C 3.984375 -8.828125 4.660156 -10.441406 6.015625 -11.765625 C 7.367188 -13.085938 9 -13.75 10.90625 -13.75 C 12.800781 -13.75 14.425781 -13.085938 15.78125 -11.765625 C 17.132812 -10.441406 17.8125 -8.828125 17.8125 -6.921875 C 17.8125 -5.015625 17.132812 -3.382812 15.78125 -2.03125 C 14.425781 -0.675781 12.800781 0 10.90625 0 Z M 10.90625 0 "/></g></g></g><mask xml:id="mask0" id="mask0"><g filter="url(#alpha)"><rect x="0" width="375" y="0" height="374.999991" style="fill:rgb(0%,0%,0%);fill-opacity:0.5176;stroke:none;"/></g></mask></g></g></svg>